HIERARCHY
ROOT base
{
	OFFSET 0.0 0.0 0.0
	CHANNELS 6 Xposition Yposition Zposition Zrotation Yrotation Xrotation
	JOINT root
	{
		OFFSET 0 0 0
		CHANNELS 6 Xposition Yposition Zposition Zrotation Yrotation Xrotation
		JOINT chest
		{
			OFFSET 0 4.72302 0
			CHANNELS 3 Zrotation Yrotation Xrotation
			JOINT neck
			{
				OFFSET 0 4.47788 0
				CHANNELS 3 Zrotation Yrotation Xrotation
				End Site
				{
					OFFSET 0.0 0.0 0.0
				}
			}
			JOINT right_shoulder
			{
				OFFSET -0.481 4.87 3.6622
				CHANNELS 3 Zrotation Yrotation Xrotation
				JOINT right_elbow
				{
					OFFSET 0 -5.49576 0
					CHANNELS 3 Zrotation Yrotation Xrotation
					JOINT right_wrist
					{
						OFFSET 0 -5.17894 0
						CHANNELS 3 Zrotation Yrotation Xrotation
						End Site
						{
							OFFSET 0.0 0.0 0.0
						}
					}
				}
			}
			JOINT left_shoulder
			{
				OFFSET -0.481 4.87 -3.6622
				CHANNELS 3 Zrotation Yrotation Xrotation
				JOINT left_elbow
				{
					OFFSET 0 -5.49576 0
					CHANNELS 3 Zrotation Yrotation Xrotation
					JOINT left_wrist
					{
						OFFSET 0 -5.17894 0
						CHANNELS 3 Zrotation Yrotation Xrotation
						End Site
						{
							OFFSET 0.0 0.0 0.0
						}
					}
				}
			}
		}
		JOINT right_hip
		{
			OFFSET 0 0 1.69774
			CHANNELS 3 Zrotation Yrotation Xrotation
			JOINT right_knee
			{
				OFFSET 0 -8.43092 0
				CHANNELS 3 Zrotation Yrotation Xrotation
				JOINT right_ankle
				{
					OFFSET 0 -8.1974 0
					CHANNELS 3 Zrotation Yrotation Xrotation
					End Site
					{
						OFFSET 0.0 0.0 0.0
					}
				}
			}
		}
		JOINT left_hip
		{
			OFFSET 0 0 -1.69774
			CHANNELS 3 Zrotation Yrotation Xrotation
			JOINT left_knee
			{
				OFFSET 0 -8.43092 0
				CHANNELS 3 Zrotation Yrotation Xrotation
				JOINT left_ankle
				{
					OFFSET 0 -8.1974 0
					CHANNELS 3 Zrotation Yrotation Xrotation
					End Site
					{
						OFFSET 0.0 0.0 0.0
					}
				}
			}
		}
	}
	JOINT red_arrow
	{
		OFFSET 0 0 0
		CHANNELS 3 Zrotation Yrotation Xrotation
		End Site
		{
			OFFSET 0.0 0.0 0.0
		}
	}
	JOINT blue_arrow
	{
		OFFSET 0 0 0
		CHANNELS 3 Zrotation Yrotation Xrotation
		End Site
		{
			OFFSET 0.0 0.0 0.0
		}
	}
}
MOTION
Frames: 7
Frame Time: 0.0333333333333333
-13.4961467623711 0 18.2822088629007 0 34.919293386403 0 0 17.1611933946609 0 -88.3917414028799 9.15826373638274 46.2827368413898 -1.98884768272751 10.9524024883402 -13.8137080642599 -3.15052804787468 -15.1324903718844 14.825251815391 29.6188689448212 17.624625803034 -27.5201836139891 31.6610242937977 0 0 0 0 0 43.3243744500365 -54.4562307533445 34.0202234274496 44.6447562833175 0 0 0 0 0 126.188122965717 -3.15280224712682 -12.1368324349047 -33.9523205339052 0 0 11.8160358072892 5.11779148987021 -2.11400460642816 112.33566594735 6.31900305395018 2.68111162262287 -41.129578936403 0 0 -0.167479333756946 9.88105495338005 -7.42375717887549 0 0 0 0 0 0
-14.3135325670242 0 18.445904609561 0 34.9615491624999 0 0 15.2170566678047 0 -78.6303948170488 0.158283550891712 43.0630635782162 -5.20396699196492 8.70055442247671 -10.4272212352006 1.66020418695832 -13.6552633034941 15.4626490477399 36.5153076289726 21.5509014200488 -24.209087571556 26.3490820158939 0 0 0 0 0 57.3031999010391 -63.4430503981143 23.343454673069 39.2399968572352 0 0 0 0 0 126.522935334003 4.92030786618878 -10.364728476621 -55.9966809480405 0 0 10.8798809821509 -1.38310082626755 2.94974683186861 108.397095134729 10.8531699468182 6.8119583392103 -56.8150878747698 0 0 27.8597307347475 6.86568387352634 -8.94367286311594 0 0 0 0 0 0
-14.5876460909843 0 18.4666314482689 0 34.10230236222 0 0 14.7730830788612 0 -70.5083522414723 -5.58202861992757 40.2536890057706 -13.5042747316147 5.8597821864462 -6.3689962774142 -1.22780850767178 -11.6128403141203 17.6694494782552 37.2880817122453 22.4610237136088 -22.4758292867005 25.3937673623464 0 0 0 0 0 62.9376538360004 -61.5205779131253 14.790146498788 33.4670936499837 0 0 0 0 0 119.861310521295 6.98530023342715 -10.2661965183866 -61.2447421741844 0 0 12.1418286370386 -3.9027814554001 3.64575406838999 102.902511407861 12.8322493795117 8.81097663504691 -62.6686112198895 0 0 29.5035442478581 2.33949814988155 -9.0097409812737 0 0 0 0 0 0
-14.6736621975899 0 18.4511517435312 0 32.9021064603946 0 0 14.6547734618187 0 -63.8417589101791 -10.5006471493876 36.2856536451764 -18.8991483462436 4.27078287740925 -0.9467911473684 -5.68091815089158 -8.48951847667964 20.0255558698839 35.354637784532 22.1340209711394 -22.3673871017334 23.4113408142433 0 0 0 0 0 56.0830797783381 -53.6244254489837 17.90338199001 29.9265558106809 0 0 0 0 0 112.298421119821 4.42874677276627 -11.3671901744157 -62.2274288108308 0 0 12.4007423517824 -2.91560054977125 3.33102038663966 96.4007507146538 13.0055518491579 10.4657834519763 -64.591548527869 0 0 29.9446855009461 -0.39271897502658 -8.77544506638514 0 0 0 0 0 0
-14.6735870480537 0 18.4345047309995 0 31.6217968897447 0 0 14.6479549527168 0 -57.1485136372643 -13.7785505273755 32.1340311647306 -21.6238421713479 3.02278145773577 3.47553826000876 -10.1484110917467 -5.5008178798109 22.184933204297 34.2255882620931 22.2154568484759 -21.8462501225797 20.1631726374574 0 0 0 0 0 51.0549340434152 -47.181949197357 19.8057867355198 26.6648365385818 0 0 0 0 0 104.996432577258 1.52264909389217 -13.1344933251928 -62.2775828899062 0 0 12.6234881712231 -1.25585152670846 2.83662070170684 89.5445432028264 12.9278237591872 11.0817435357012 -64.9274162501152 0 0 29.9426486770903 -2.24892342790583 -8.56475494302757 0 0 0 0 0 0
-14.60823315382 0 18.4397141814232 0 30.3441559232596 0 0 14.7542538046837 0 -50.7012091120982 -15.9417148901121 28.0692778826152 -22.204126515418 1.81192174019124 6.75053085406635 -14.4326395973617 -3.52253103884328 22.4455851244085 34.5552641749325 22.0876388557646 -19.6122467331858 17.7403457369557 0 0 0 0 0 48.0173249201694 -42.5915262511552 19.2299215959358 23.4321267874349 0 0 0 0 0 97.3676844590353 -0.296983619592766 -14.0803757675389 -61.1887414531795 0 0 12.6298063437742 -0.921611540080529 2.75379864181886 82.3600432140006 12.6919471830817 11.2394120156732 -63.758367901965 0 0 29.4580517939761 -3.51230539463165 -8.47679760991046 0 0 0 0 0 0
-14.4753318309784 0 18.4967021197081 0 29.1004307834336 0 0 15.0665509462357 0 -44.9883042899535 -17.1943131442448 23.8999905303348 -21.0603370627981 0.646187307554952 9.45554240853358 -18.427458576921 -2.49299085526614 21.1593994546225 34.8908634212239 20.7365369673802 -16.5471615757121 16.5719547945131 0 0 0 0 0 45.0697692092157 -38.9927805660083 17.3060709112763 21.2817356423575 0 0 0 0 0 88.693274011272 -1.56808184932238 -13.7287209584704 -57.5210391519093 0 0 11.8594193971802 -2.24850796144835 3.00833531939667 74.6689593449797 12.4097779155722 11.4547312525543 -59.8620455087962 0 0 27.8324985864409 -4.75063646173566 -8.55121802835185 0 0 0 0 0 0
